<svg width="2441" height="99" viewBox="0 0 2441 99" fill="none" xmlns="http://www.w3.org/2000/svg">
<path fill-rule="evenodd" clip-rule="evenodd" d="M0 0L101.708 12.3712C203.417 24.7425 406.833 49.4849 610.25 49.4849C813.667 49.4849 1017.08 24.7425 1220.5 16.495C1423.92 8.24749 1627.33 16.495 1830.75 16.495C2034.17 16.495 2237.58 8.24749 2339.29 4.12375L2441 0V98.9699H2339.29C2237.58 98.9699 2034.17 98.9699 1830.75 98.9699C1627.33 98.9699 1423.92 98.9699 1220.5 98.9699C1017.08 98.9699 813.667 98.9699 610.25 98.9699C406.833 98.9699 203.417 98.9699 101.708 98.9699H0V0Z" fill="#8ACFFF"/>
</svg>
